<?xml version="1.0" encoding="UTF-8"?>
<svg id="Layer_4" xmlns="http://www.w3.org/2000/svg" version="1.1" viewBox="0 0 612 613.6">
  <!-- Generator: Adobe Illustrator 29.1.0, SVG Export Plug-In . SVG Version: 2.1.0 Build 142)  -->
  <path d="M324,247c0,12.8-10.4,23.2-23.2,23.2s-23.2-10.4-23.2-23.2,10.4-23.2,23.2-23.2,23.2,10.4,23.2,23.2Z" fill="#f5166b"/>
  <path d="M306,60.5c-136.1,0-246.3,110.3-246.3,246.3s110.3,246.3,246.3,246.3,246.3-110.3,246.3-246.3S442.1,60.5,306,60.5ZM384.3,448.6c-41.1,3.9-48.6-26.5-48.6-26.5l-11.8-67.8s-2.8-20.9-17.8-19.8c-15,1.1-15,22.6-15,22.6l-6.2,61.6s-2.8,29.9-50.3,30c-45.7,0-42.9-21.5-42.9-21.5,0,0,5.1-111.2,13.6-156.4,6.1-32.4,21.1-78.7,29.2-102.3,3.8-11,12-19.9,22.8-24.3,11.3-4.7,27.4-9.2,45.8-8.4,21.2,1,38.5,7,49.2,11.9,8.7,3.9,15.7,10.7,19.9,19.2,8.3,16.8,21.5,53.3,31.5,127.1,15.8,116.9,16.9,131,16.9,131,0,0,0,20.3-36.1,23.7Z" fill="#f5166b"/>
  <path d="M403.5,293.8c-10-73.8-23.1-110.2-31.5-127.1-4.2-8.5-11.2-15.3-19.9-19.2-10.7-4.8-28-10.9-49.2-11.9-18.4-.9-34.4,3.7-45.8,8.4-10.7,4.4-19,13.3-22.8,24.3-8,23.6-23.1,69.9-29.2,102.3-8.5,45.2-13.6,156.4-13.6,156.4,0,0-2.8,21.6,42.9,21.5,47.5,0,50.3-30,50.3-30l6.2-61.6s0-21.4,15-22.6c15-1.1,17.8,19.8,17.8,19.8l11.8,67.8s7.4,30.4,48.6,26.5c36.1-3.4,36.1-23.7,36.1-23.7,0,0-1.1-14.1-16.9-131ZM300.8,270.1c-12.8,0-23.2-10.4-23.2-23.2s10.4-23.2,23.2-23.2,23.2,10.4,23.2,23.2-10.4,23.2-23.2,23.2Z"/>
</svg>