<?xml version="1.0" encoding="UTF-8"?>
<svg id="Layer_1" xmlns="http://www.w3.org/2000/svg" version="1.1" viewBox="0 0 54 42.4">
  <!-- Generator: Adobe Illustrator 29.1.0, SVG Export Plug-In . SVG Version: 2.1.0 Build 142)  -->
  <path fill="currentColor" d="M10.6,7.3h-5L0,34.4h4.4l1.2-5.2h5.1c0,0,1.8,5.2,1.8,5.2h5.5L10.6,7.3ZM10.1,25.2h-3.5c-.1,0-.2,0-.2-.2l1.5-7.2c0-.2.3-.2.3,0l2,7.2c0,.1,0,.2-.2.2Z"/>
  <path fill="currentColor" d="M33,18.4h-14.2v5.4h14.2v-5.4Z"/>
  <path fill="currentColor" d="M51.7,19s.5-2.7.5-6-1.5-5.5-2.8-5.6c-1.2-.1-9.2-.2-11.9-.2-.5,0-.9.4-.9.9v25.9c-.1,0,14.2,0,14.2,0,0,0,2.9-.7,3.2-7.1,0-6.4-2.2-7.9-2.2-7.9h0ZM42.1,11.5c.8-.2,1.8-.1,2.2-.1.8,0,1.1.2,1.8.6,2.1,1.3,1,4.5-1,5.4-.6.2-.8.3-1.5.3-.4,0-1.1-.1-1.3-.3M42.3,21.8c.3,0,.6,0,1.3,0,.6,0,1.4,0,2.5.5,1.4.6,1.4,1,1.7,2.2.3,1,.3,2,0,3.3h0c-.4,1.2-1.2,2.1-2.3,2.4-.3,0-.6,0-.8,0-.4,0-1.1,0-2.1-.1"/>
</svg>