<svg width="54" height="28" viewBox="0 0 54 28" fill="none" xmlns="http://www.w3.org/2000/svg">
<g clip-path="url(#clip0_33_94)">
<path d="M10.5713 0.154541H5.59353L0 27.2162H4.37554L5.62066 21.9699L10.7368 21.9048L12.5054 27.2162H17.9877L10.5713 0.154541ZM10.0749 18.0582H6.56738C6.46701 18.0582 6.39377 17.966 6.41547 17.8683L7.95085 10.6445C7.98611 10.4844 8.21126 10.479 8.25467 10.6363L10.2268 17.8602C10.2539 17.9605 10.178 18.0582 10.0749 18.0582Z" fill="currentColor"/>
<path d="M33.0024 11.2169H18.7935V16.6558H33.0024V11.2169Z" fill="currentColor"/>
<path d="M51.7388 11.8164C51.7388 11.8164 52.2244 9.09831 52.2244 5.778C52.2244 2.45768 50.7731 0.311958 49.3788 0.170898C48.1798 0.0406901 40.191 0.00813802 37.4349 0C36.9195 0 36.499 0.415039 36.4963 0.93316L36.3661 26.8229H50.7026C50.7026 26.8229 53.5644 26.1556 53.9225 19.7211C54.0175 13.3247 51.7388 11.8191 51.7388 11.8191V11.8164ZM42.1387 4.38368C42.9362 4.14225 43.9317 4.25076 44.3386 4.26432C45.1009 4.28874 45.4752 4.41895 46.0964 4.85026C48.1472 6.10623 47.0513 9.375 45.1226 10.262C44.5258 10.5035 44.3685 10.5387 43.6171 10.5225C43.202 10.5143 42.5564 10.4194 42.277 10.178M42.3367 14.6403C42.6568 14.6186 42.9715 14.6132 43.5899 14.6077C44.2084 14.6023 45.0249 14.6376 46.0856 15.0933C47.4474 15.6765 47.4636 16.1404 47.7729 17.3123C48.0414 18.3295 48.0794 19.3387 47.7024 20.5675L47.6834 20.6163C47.2385 21.7204 46.4871 22.6969 45.3776 22.9601C45.0982 23.0252 44.8106 23.0008 44.5285 23.0089C44.127 23.0198 43.4435 23.0252 42.4533 22.9058" fill="currentColor"/>
</g>
<defs>
<clipPath id="clip0_33_94">
<rect width="53.9253" height="27.2163" fill="white"/>
</clipPath>
</defs>
</svg>
