<?xml version="1.0" encoding="UTF-8"?>
<svg id="Layer_5" xmlns="http://www.w3.org/2000/svg" version="1.1" viewBox="0 0 612 609.9">
  <!-- Generator: Adobe Illustrator 29.1.0, SVG Export Plug-In . SVG Version: 2.1.0 Build 142)  -->
  <path d="M323.9,352.5c-.4,11-10.4,19.9-21.4,20.2-11.5.3-22.4-8.8-22.6-20.8-.2-11.4,9.6-20.6,20.2-21.4,12.4-1,24.3,9.5,23.8,22Z" fill="#0098f0"/>
  <path d="M303.2,69.8c-130.3,0-236,105.7-236,236s105.6,236,236,236,236-105.6,236-236-105.6-236-236-236ZM399.1,377.2c-1.5,13.3-7.7,25.6-17.4,34.9-13.3,12.8-37.1,29.6-70.9,29.8-29.5.2-55.8-3.7-73.8-7.3-14.4-2.9-25-15.3-25.7-30l-10.6-219.6c-.8-16.1,9.7-30.5,25.2-34.8,16.6-4.6,38.6-9.4,58.9-9.8,39.5-.8,64.4,8.3,64.4,8.3,0,0,36.9,14.3,35,63.6-1.9,49.3-48.6,67.8-48.6,67.8,0,0,60.6,27.1,63.6,64.8,1.1,13.6.7,24.3-.2,32.4Z" fill="#0098f0"/>
  <path d="M399.3,344.7c-3-37.6-63.6-64.8-63.6-64.8,0,0,46.7-18.5,48.6-67.8,1.9-49.3-35-63.6-35-63.6,0,0-24.8-9-64.4-8.3-20.3.4-42.3,5.2-58.9,9.8-15.5,4.3-26,18.7-25.2,34.8l10.6,219.6c.7,14.7,11.3,27.1,25.7,30,18,3.6,44.3,7.5,73.8,7.3,33.8-.2,57.6-17,70.9-29.8,9.6-9.3,15.8-21.6,17.4-34.9.9-8.1,1.3-18.8.2-32.4ZM295.3,195.9c12.4-1,24.3,9.5,23.8,22-.5,11-10.4,19.9-21.4,20.2-11.5.3-22.4-8.8-22.6-20.8-.2-11.4,9.6-20.6,20.2-21.4ZM323.9,352.5c-.4,11-10.4,19.9-21.4,20.2-11.5.3-22.4-8.8-22.6-20.8-.2-11.4,9.6-20.6,20.2-21.4,12.4-1,24.3,9.5,23.8,22Z"/>
  <path d="M319.1,217.9c-.5,11-10.4,19.9-21.4,20.2-11.5.3-22.4-8.8-22.6-20.8-.2-11.4,9.6-20.6,20.2-21.4,12.4-1,24.3,9.5,23.8,22Z" fill="#0098f0"/>
</svg>