<svg width="32" height="30" viewBox="0 0 32 30" fill="none" xmlns="http://www.w3.org/2000/svg">
<path d="M12.2205 5.76201H1.98645V23.0656H12.2205V19.1081L6.40815 18.9417L6.41253 16.0881H12.2205V12.0584L6.40815 12.1416L6.40596 9.70847H12.2205V5.76201Z" fill="currentColor"/>
<path d="M29.4824 13.8542C29.3575 8.91786 25.5797 5.32399 21.815 5.41379C17.2335 5.52329 13.1644 9.54202 13.8258 16.0662C14.2944 20.6915 18.092 23.3656 22.8006 23.4094L25.0147 26.9354H29.2021L26.7251 21.4953C26.7251 21.4953 29.6006 18.4643 29.4846 13.8564L29.4824 13.8542ZM21.6683 18.4643C19.6053 18.4643 18.0898 16.6005 18.0898 14.301C18.0898 12.0014 19.5637 10.2669 21.6267 10.2669C23.6897 10.2669 25.249 12.0014 25.249 14.301C25.249 16.6005 23.7313 18.4643 21.6705 18.4643H21.6683Z" fill="currentColor"/>
</svg>
