<svg width="40" height="40" viewBox="0 0 40 40" fill="none" xmlns="http://www.w3.org/2000/svg">
<path fill-rule="evenodd" clip-rule="evenodd" d="M16.2925 3.43491C16.2319 3.49554 15.9818 3.56586 15.7368 3.59117C15.4919 3.61647 15.1814 3.692 15.0468 3.75915C14.9123 3.82629 14.7374 3.88117 14.6582 3.88117C14.5789 3.88117 14.458 3.94668 14.3894 4.02679C14.3208 4.1069 14.2041 4.15658 14.13 4.13717C14.056 4.11784 13.9364 4.16092 13.8644 4.23296C13.7872 4.31019 13.6585 4.34955 13.5506 4.3289C13.4329 4.30639 13.3316 4.34404 13.2665 4.43447C13.2027 4.52296 13.1058 4.56006 13.0047 4.53476C12.8936 4.50689 12.7745 4.56736 12.6175 4.73115C12.4704 4.88476 12.3143 4.9679 12.1732 4.9679C12.0352 4.9679 11.7877 5.09566 11.4961 5.31743C11.2256 5.52314 10.9886 5.64865 10.9201 5.62234C10.7996 5.57608 10.5872 5.73055 10.0855 6.22928C9.92447 6.38941 9.77109 6.52036 9.74454 6.52036C9.71807 6.52036 9.65419 6.55568 9.60265 6.59876C9.00945 7.09485 8.39553 7.52869 8.28631 7.529C8.19029 7.52931 8.15008 7.59203 8.14915 7.74293C8.14775 7.95981 8.00811 8.12709 7.54889 8.46165C7.41018 8.56271 7.29661 8.68823 7.29661 8.74055C7.29661 8.79287 7.14276 8.96682 6.95476 9.12711C6.76676 9.2874 6.62975 9.46244 6.65032 9.51616C6.67097 9.5698 6.59777 9.67273 6.48762 9.74492C6.37755 9.81703 6.28751 9.92547 6.28751 9.98594C6.28751 10.0464 6.23511 10.116 6.17107 10.1406C6.10703 10.1652 6.05464 10.2634 6.05464 10.359C6.05464 10.4545 5.98478 10.596 5.89939 10.6732C5.81401 10.7504 5.74415 10.8577 5.74415 10.9115C5.74415 11.0071 5.56942 11.243 5.22252 11.6159C5.12448 11.7213 5.0422 11.9202 5.03164 12.0776C5.02062 12.2407 4.96023 12.3823 4.88439 12.4229C4.81367 12.4607 4.7331 12.6337 4.70531 12.8073C4.66798 13.0408 4.60471 13.1457 4.46212 13.2106C4.29344 13.2875 4.2693 13.3482 4.2693 13.6943C4.2693 14.0061 4.23631 14.1107 4.11405 14.1871C3.99583 14.2609 3.95881 14.3681 3.95881 14.6362C3.95881 14.9126 3.91511 15.0321 3.75544 15.1917C3.44246 15.5047 3.34124 16.2923 3.53273 16.9247C3.66516 17.3622 3.6678 17.4468 3.56541 17.9953C3.41544 18.7988 3.40947 23.1874 3.55827 23.2793C3.61672 23.3155 3.64855 23.4671 3.63737 23.6563C3.62712 23.8305 3.66446 24.0279 3.72027 24.0952C3.77616 24.1626 3.80387 24.2864 3.7819 24.3705C3.75994 24.4545 3.79075 24.5638 3.85037 24.6133C3.90998 24.6627 3.95881 24.8049 3.95881 24.9291C3.95881 25.0581 4.00864 25.174 4.07524 25.1995C4.142 25.2251 4.19168 25.341 4.19168 25.4712C4.19168 25.6014 4.24136 25.7172 4.30811 25.7429C4.37355 25.768 4.42455 25.8835 4.42455 26.0066C4.42455 26.127 4.47469 26.2757 4.53602 26.3371C4.60766 26.4087 4.6207 26.4752 4.5725 26.5234C4.52429 26.5716 4.58104 26.6932 4.73147 26.8639C4.86017 27.0099 4.97047 27.1643 4.97661 27.207C4.98274 27.2497 4.99609 27.3651 5.00626 27.4635C5.01643 27.5619 5.13418 27.7494 5.268 27.8802C5.40183 28.0111 5.51128 28.1621 5.51128 28.2158C5.51128 28.2696 5.56158 28.3553 5.62313 28.4063C5.68461 28.4573 5.71628 28.5476 5.69354 28.6068C5.65527 28.7066 5.95963 29.1148 6.5786 29.7938C6.71731 29.946 6.83087 30.1093 6.83087 30.1566C6.83087 30.204 6.95313 30.3611 7.10255 30.506C7.25198 30.6508 7.37424 30.8148 7.37424 30.8705C7.37424 30.9262 7.40047 30.972 7.43245 30.9722C7.46443 30.9725 7.55145 31.0795 7.62581 31.2101C7.7001 31.3407 7.79759 31.4249 7.84238 31.3972C7.88717 31.3695 8.14077 31.5625 8.40585 31.8261C9.41069 32.8253 9.58844 32.9909 9.65613 32.9904C9.6944 32.9902 9.87495 33.1122 10.0573 33.2616C10.2397 33.411 10.4441 33.5333 10.5116 33.5333C10.6294 33.5333 10.6979 33.5806 11.1144 33.9497C11.2174 34.0409 11.397 34.1589 11.5136 34.2118C11.6301 34.2648 11.7458 34.3609 11.7704 34.4253C11.801 34.5049 11.9237 34.5424 12.1537 34.5424C12.4125 34.5424 12.5114 34.5789 12.575 34.6976C12.6242 34.7896 12.7375 34.8529 12.8528 34.8529C12.9599 34.8529 13.1417 34.9402 13.2568 35.047C13.3719 35.1537 13.5276 35.2454 13.6027 35.2507C13.8611 35.269 13.8861 35.2803 14.0421 35.4477C14.1714 35.5865 14.2885 35.6162 14.7186 35.6196C15.1791 35.6231 15.2646 35.6484 15.4642 35.8398C15.6708 36.0379 15.756 36.0604 16.4805 36.108C16.9154 36.1365 17.4284 36.2038 17.6205 36.2575C18.2246 36.4264 19.8568 36.3904 20.9971 36.1831C21.7793 36.0409 22.1434 36.011 22.6162 36.0498C22.9561 36.0777 23.2654 36.0683 23.3148 36.0285C23.3636 35.9892 23.5432 35.9371 23.714 35.9125C24.4362 35.8088 24.6534 35.7587 24.7902 35.6637C24.8698 35.6084 24.9806 35.5808 25.0365 35.6022C25.0924 35.6236 25.1769 35.5686 25.2244 35.4799C25.2785 35.3787 25.3892 35.3177 25.5214 35.3161C25.6373 35.3148 25.7967 35.2648 25.8755 35.2051C25.9544 35.1453 26.0696 35.1159 26.1315 35.1396C26.1935 35.1634 26.2898 35.1204 26.3456 35.0441C26.4124 34.9528 26.4954 34.9238 26.5881 34.9594C26.6887 34.998 26.7909 34.946 26.9443 34.778C27.1032 34.604 27.2284 34.5424 27.4235 34.5424C27.5948 34.5424 27.7394 34.4843 27.8354 34.3771C28.0358 34.153 28.5491 33.8332 28.6655 33.8599C28.7845 33.8873 29.2472 33.5623 29.4789 33.2886C29.5757 33.1743 29.8027 32.9935 29.9834 32.887C30.1641 32.7804 30.4146 32.5854 30.5399 32.4535C30.6653 32.3216 30.8138 32.2137 30.8698 32.2137C30.9259 32.2137 30.9717 32.1853 30.9717 32.1506C30.9717 32.1158 31.0895 32.0412 31.2334 31.9848C31.4123 31.9145 31.4846 31.8421 31.462 31.7557C31.428 31.6258 32.0653 30.8941 32.2124 30.8941C32.2558 30.8941 32.2913 30.8283 32.2913 30.7478C32.2913 30.6673 32.381 30.5427 32.4905 30.471C32.8436 30.2396 32.9899 30.0864 32.9899 29.9481C32.9899 29.8737 33.0598 29.7755 33.1452 29.7297C33.2306 29.684 33.3004 29.5972 33.3004 29.5369C33.3004 29.4764 33.3583 29.3946 33.4291 29.3549C33.4999 29.3153 33.563 29.2175 33.5691 29.1376C33.5863 28.9159 34.2881 27.8956 34.5126 27.7659C34.5752 27.7298 34.62 27.5773 34.62 27.401C34.62 27.2075 34.6637 27.0739 34.7411 27.0306C34.8077 26.9933 34.8799 26.8431 34.9017 26.6968C34.9242 26.5447 35.0344 26.3416 35.1589 26.2225C35.32 26.0686 35.3669 25.9625 35.3388 25.8159C35.3112 25.6713 35.3401 25.6031 35.4456 25.5641C35.6724 25.4803 35.7043 25.3831 35.7056 24.7736C35.7067 24.2477 35.724 24.1871 35.9273 23.9971C36.1375 23.8008 36.1512 23.7455 36.2179 22.821C36.2564 22.2875 36.2834 21.0016 36.2778 19.9636C36.2681 18.1565 36.2608 18.0687 36.1037 17.9016C35.9068 17.6919 35.8783 17.1103 36.0536 16.8785C36.2031 16.6809 36.2032 16.3453 36.0537 16.2213C35.9785 16.1589 35.9387 16.0059 35.9451 15.8044C35.9569 15.4397 35.8427 14.951 35.7078 14.7884C35.6572 14.7275 35.6364 14.6443 35.6615 14.6036C35.7302 14.4924 35.6275 14.2827 35.5044 14.2827C35.4332 14.2827 35.3963 14.1927 35.3963 14.0193C35.3963 13.8568 35.3517 13.7389 35.2798 13.7112C35.2132 13.6857 35.1634 13.5699 35.1634 13.4408C35.1634 13.3166 35.1094 13.1701 35.0433 13.1153C34.9534 13.0407 34.9468 13.0011 35.0168 12.9578C35.0832 12.9167 35.0394 12.8104 34.8652 12.5904C34.7303 12.4202 34.62 12.2046 34.62 12.1111C34.62 12.0177 34.4978 11.7922 34.3484 11.6097C34.1989 11.4274 34.0767 11.2382 34.0767 11.1892C34.0767 11.1402 34.0417 11.1001 33.9991 11.1001C33.9564 11.1001 33.9214 11.0124 33.9214 10.9053C33.9214 10.6888 33.3423 9.89861 33.1258 9.81967C33.0511 9.79234 32.9899 9.72008 32.9899 9.65891C32.9899 9.54604 32.9522 9.49458 32.5041 8.99616C32.3657 8.84231 32.1761 8.58033 32.0827 8.41399C31.9892 8.24772 31.845 8.10101 31.7621 8.08805C31.6793 8.07508 31.4327 7.87427 31.2144 7.64171C30.996 7.40923 30.7871 7.21897 30.7502 7.21897C30.7133 7.21897 30.5491 7.06179 30.3854 6.86967C30.2216 6.67755 30.0263 6.52036 29.9514 6.52036C29.8764 6.52036 29.7872 6.47666 29.7531 6.42333C29.6569 6.27298 29.2064 5.977 29.0738 5.977C29.0083 5.977 28.9112 5.90714 28.8579 5.82175C28.8046 5.73637 28.7018 5.66651 28.6296 5.66651C28.5573 5.66651 28.4761 5.59665 28.449 5.51126C28.4219 5.42587 28.3672 5.35167 28.3273 5.34631C28.2875 5.34095 28.22 5.32791 28.1773 5.3172C28.1346 5.30649 28.0671 5.29345 28.0273 5.28809C27.9874 5.28274 27.9337 5.21163 27.9078 5.12997C27.8732 5.02084 27.7576 4.96743 27.4702 4.92792C27.2488 4.89749 27.0615 4.82717 27.0379 4.76577C27.015 4.70615 26.914 4.6574 26.8133 4.6574C26.7126 4.6574 26.5117 4.55339 26.3669 4.42616C26.1731 4.25601 26.0056 4.18685 25.7322 4.16403C25.4951 4.14431 25.3354 4.08757 25.2904 4.00715C25.242 3.92068 25.1127 3.88117 24.8783 3.88117C24.6673 3.88117 24.513 3.83972 24.4747 3.77273C24.4405 3.71311 24.2903 3.5935 24.1409 3.50687C23.9233 3.38073 23.7842 3.35807 23.4423 3.39276C23.2075 3.41659 22.5962 3.42498 22.0839 3.41147C20.0848 3.35869 19.0377 3.38081 18.4531 3.48816C17.9655 3.57782 17.7793 3.58108 17.4828 3.50532C16.8312 3.33866 16.4135 3.31398 16.2925 3.43491ZM21.4373 4.46241C22.8349 4.61626 23.7245 4.77019 23.8585 4.88135C23.9155 4.9287 24.1436 5.0019 24.3652 5.04389C25.0399 5.17189 27.3588 6.20785 27.9832 6.6604C28.154 6.78413 28.5557 7.05597 28.8759 7.26438C29.7975 7.86434 31.4982 9.61296 32.3803 10.8673C33.161 11.9774 34.3095 14.1721 34.3095 14.5536C34.3095 14.6676 34.3935 14.9763 34.4961 15.2397C34.7997 16.0194 34.8708 16.2986 34.8326 16.559C34.8127 16.6945 34.8403 16.9103 34.894 17.0383C35.069 17.4554 35.1723 18.2305 35.1176 18.7145C35.0805 19.0422 35.0952 19.2397 35.1667 19.3731C35.2493 19.5276 35.2513 19.7146 35.1772 20.358C35.1269 20.7949 35.0659 21.4143 35.0415 21.7345C34.9872 22.4489 34.786 23.5255 34.6831 23.652C34.6414 23.7033 34.5545 23.9997 34.4902 24.3106C34.3699 24.892 34.2842 25.1088 34.1032 25.2898C34.0459 25.3471 33.9991 25.4662 33.9991 25.5545C33.9991 25.6429 33.932 25.8587 33.8501 26.0341C33.7682 26.2096 33.5917 26.5967 33.4579 26.8944C33.3242 27.1921 33.18 27.4572 33.1375 27.4834C33.0951 27.5096 33.0008 27.6502 32.9281 27.7958C32.8553 27.9413 32.7425 28.0703 32.6773 28.0824C32.5609 28.104 31.86 27.6415 31.5539 27.3412C31.4685 27.2574 31.2066 27.0732 30.9717 26.9317C30.7369 26.7904 30.2828 26.4787 29.9626 26.2392C29.6424 25.9996 29.0312 25.5616 28.6042 25.2658C28.1773 24.97 27.7232 24.6307 27.5951 24.5118C27.467 24.3929 27.0391 24.0866 26.6442 23.8311C26.2494 23.5755 25.9265 23.3224 25.927 23.2685C25.9274 23.2147 26.0174 22.9785 26.127 22.7436C26.7575 21.393 27.0097 20.1776 26.8476 19.2712C26.656 18.1997 26.606 17.9596 26.5398 17.7915C26.5012 17.6935 26.4696 17.5453 26.4696 17.4623C26.4696 17.2568 25.9441 16.2685 25.5154 15.6677C25.2245 15.2601 24.4205 14.4393 23.9052 14.0239C23.5053 13.7015 22.5134 13.196 22.2807 13.196C22.2053 13.196 22.0575 13.1282 21.9521 13.0454C21.5313 12.7144 19.0658 12.631 18.2511 12.9202C17.8483 13.0632 17.8534 13.0626 17.8534 12.9602C17.8534 12.916 17.6651 12.4531 17.4349 11.9317C17.2048 11.4103 16.9214 10.7392 16.8052 10.4403C16.689 10.1415 16.4927 9.6787 16.369 9.41191C16.2453 9.14512 16.0604 8.67356 15.9579 8.364C15.8554 8.05443 15.6106 7.4638 15.4138 7.05139C15.043 6.275 14.8284 5.66705 14.8269 5.3897C14.8255 5.13261 15.7417 4.79876 16.9787 4.6054C18.7548 4.32789 19.8856 4.29156 21.4373 4.46241ZM13.6426 5.99641C13.7388 6.17789 13.8173 6.36551 13.8172 6.41348C13.817 6.50259 13.9725 6.87844 14.3693 7.74837C14.4925 8.01818 14.5932 8.28187 14.5932 8.33442C14.5932 8.3869 14.6246 8.46304 14.6631 8.50364C14.7315 8.57583 15.3694 10.0956 15.3694 10.1864C15.3694 10.2117 15.4917 10.4935 15.6411 10.8126C15.7905 11.1317 15.9128 11.4273 15.9128 11.4696C15.9128 11.5573 16.2235 12.2768 16.5017 12.8336C16.784 13.3987 16.7615 13.4611 16.1298 13.866C15.8221 14.0632 15.3767 14.4047 15.1401 14.625C14.4029 15.311 14.5525 15.3152 13.5658 14.5806C13.0849 14.2226 12.412 13.7419 12.0704 13.5122C11.7289 13.2826 11.343 12.9952 11.2129 12.8737C11.0828 12.7521 10.9452 12.6526 10.9073 12.6526C10.8692 12.6526 10.6438 12.5027 10.4064 12.3195C10.1689 12.1363 9.86983 11.9214 9.74175 11.8418C9.61367 11.7623 9.17704 11.4523 8.77146 11.153C8.36587 10.8536 7.91954 10.5246 7.77966 10.4219L7.52521 10.2351L8.39103 9.30999C9.43886 8.19043 9.99829 7.71895 11.4872 6.70123C11.949 6.38553 13.2641 5.67186 13.3902 5.66853C13.433 5.66744 13.5465 5.81492 13.6426 5.99641ZM7.53484 11.7137C7.7667 11.8804 8.02627 12.0848 8.11166 12.1679C8.19704 12.251 8.34686 12.3611 8.44459 12.4125C8.65525 12.5234 11.8902 14.8362 12.204 15.1002C12.3233 15.2007 12.7168 15.4776 13.0785 15.7158L13.736 16.1488L13.536 16.5935C13.4259 16.8382 13.3016 17.1431 13.2598 17.2712C13.2179 17.3993 13.114 17.6356 13.0289 17.7962C12.9439 17.9569 12.8647 18.2538 12.8529 18.456C12.8411 18.6583 12.7853 19.0588 12.7289 19.3462C12.6495 19.7505 12.6469 19.9137 12.7171 20.0678C12.767 20.1773 12.8079 20.39 12.8079 20.5402C12.8079 20.6904 12.8406 20.8743 12.8805 20.9489C12.9204 21.0235 12.9703 21.2847 12.9912 21.5294C13.0175 21.8355 13.1191 22.1485 13.3172 22.5335C13.8158 23.5022 14.13 23.9234 14.979 24.7619C15.8471 25.6191 16.3667 25.9451 17.6525 26.4393C18.4703 26.7537 20.0041 26.877 20.8031 26.6927C20.9952 26.6484 21.2746 26.5958 21.4241 26.5758L21.6957 26.5394L22.129 27.4554C22.3673 27.9592 22.6258 28.5635 22.7034 28.7983C22.8376 29.2039 22.9374 29.4387 23.4532 30.5625C23.5752 30.8284 23.6751 31.1146 23.6751 31.1985C23.6751 31.2824 23.8847 31.786 24.1409 32.3176C24.397 32.8491 24.6066 33.3577 24.6066 33.4478C24.6066 33.5378 24.6769 33.7423 24.7627 33.9023L24.9187 34.1931L24.6657 34.3046C23.8565 34.6609 23.203 34.8515 22.8157 34.8442C22.6694 34.8415 22.3575 34.8815 22.1227 34.9333C21.4755 35.076 20.8448 35.1466 20.8179 35.0794C20.8047 35.0464 20.6893 35.0559 20.5614 35.1005C20.4275 35.1472 20.0262 35.1642 19.6151 35.1405C18.8151 35.0945 16.8318 34.8805 16.5338 34.808C16.4271 34.782 16.2453 34.7484 16.1298 34.7334C16.0144 34.7183 15.8398 34.6562 15.7417 34.5955C15.6437 34.5347 15.342 34.4401 15.0714 34.3851C14.8007 34.3303 14.4586 34.2035 14.3111 34.1034C14.1636 34.0033 13.9834 33.9212 13.9106 33.9209C13.8378 33.9206 13.6762 33.8672 13.5515 33.8023C13.4268 33.7372 13.1224 33.6023 12.875 33.5024C12.6276 33.4024 12.1795 33.1589 11.8791 32.9613C11.5788 32.7636 11.0973 32.4461 10.8091 32.2557C9.08459 31.1166 7.11606 28.8142 6.06116 26.7024C5.77325 26.1261 5.48046 25.4799 5.4106 25.2664C5.34066 25.0529 5.17323 24.5464 5.03847 24.1409C4.90379 23.7353 4.76446 23.1939 4.72891 22.9377C4.69336 22.6815 4.62233 22.2275 4.57095 21.9286C4.30532 20.3815 4.56606 16.393 4.97746 15.7096C5.05757 15.5765 5.12316 15.3625 5.12316 15.2342C5.12316 14.9423 5.32653 14.3472 5.4616 14.2439C5.51749 14.2012 5.58494 14.031 5.61149 13.8656C5.63811 13.7001 5.71379 13.5053 5.77962 13.4325C5.84552 13.3598 5.89939 13.2495 5.89939 13.1877C5.89939 13.0153 6.42653 11.954 6.51215 11.954C6.5536 11.954 6.61166 11.8754 6.64108 11.7793C6.78181 11.3203 6.96858 11.3065 7.53484 11.7137ZM21.2442 14.2875C22.2272 14.594 22.2991 14.6251 22.8017 14.9586C23.7305 15.5751 24.3843 16.3208 24.9059 17.3582C25.2262 17.9954 25.3828 18.6822 25.4346 19.6775C25.4779 20.5082 25.4713 20.5546 25.1964 21.3852C25.0409 21.8549 24.8133 22.4137 24.6904 22.6272C24.1011 23.6514 22.81 24.7028 21.6257 25.1228C21.1851 25.2791 19.5086 25.4782 19.1471 25.4172C18.4019 25.2915 16.925 24.6984 16.6351 24.4084C16.5732 24.3466 16.4958 24.2961 16.4628 24.2961C16.3387 24.2961 15.4507 23.3611 15.1609 22.9254C14.4946 21.9233 14.2558 21.1789 14.1546 19.7884C14.1107 19.1845 14.1295 19.0447 14.3582 18.2748C14.6709 17.2222 14.8086 16.9494 15.3808 16.2486C15.9335 15.5716 16.2772 15.272 16.9723 14.8608C17.9193 14.3006 18.6668 14.1087 20.0799 14.0629C20.3424 14.0543 20.747 14.1324 21.2442 14.2875ZM19.1527 17.4976C18.648 17.6333 17.9572 18.1886 17.7163 18.6522C17.117 19.8057 17.6052 21.2532 18.7973 21.8573C19.2976 22.1108 19.6661 22.1514 20.279 22.0206C21.3717 21.7874 22.1231 20.8885 22.1222 19.8156C22.1217 19.0974 22.0161 18.7727 21.6286 18.2973C20.992 17.5165 20.1243 17.2362 19.1527 17.4976ZM20.2985 18.698C20.7671 18.9132 20.9054 19.112 20.941 19.6222C20.9669 19.9922 20.9416 20.1104 20.7883 20.3362C20.52 20.731 20.0619 20.9741 19.6888 20.9198C19.1976 20.8483 18.9414 20.6703 18.7692 20.281C18.651 20.0141 18.6238 19.8375 18.66 19.5736C18.7235 19.1108 18.8592 18.9188 19.2648 18.718C19.6726 18.5161 19.8933 18.5119 20.2985 18.698ZM25.6819 24.6497C26.2959 25.1172 27.0219 25.6445 27.7504 26.1519C28.1346 26.4195 28.6586 26.7934 28.9147 26.9829C29.1709 27.1723 29.5551 27.443 29.7686 27.5846C30.1447 27.8339 31.2895 28.6707 31.809 29.0761L32.064 29.275L31.6875 29.677C31.4805 29.8981 31.0862 30.3188 30.8115 30.6119C29.8738 31.6122 28.2702 32.7939 26.942 33.4636C26.5073 33.6828 26.1398 33.8493 26.1256 33.8335C26.0655 33.7676 25.6157 32.7572 25.6157 32.6882C25.6157 32.6125 25.1727 31.5273 24.7541 30.5774C24.6303 30.2965 24.529 30.0443 24.529 30.017C24.529 29.9896 24.4417 29.7763 24.3349 29.543C24.2282 29.3097 24.1409 29.1 24.1409 29.077C24.1409 29.0541 24.0587 28.8511 23.9583 28.6257C23.7274 28.1078 23.4423 27.3768 23.4423 27.3028C23.4423 27.2717 23.3149 26.9851 23.1593 26.6661C22.8303 25.9918 22.8263 26.0031 23.5412 25.5824C23.807 25.4261 24.269 25.074 24.5678 24.8C24.8667 24.526 25.1584 24.3182 25.2162 24.3383C25.274 24.3585 25.4835 24.4986 25.6819 24.6497Z" fill="currentColor"/>
</svg>
