<svg width="40" height="33" viewBox="0 0 40 33" fill="none" xmlns="http://www.w3.org/2000/svg">
<g clip-path="url(#clip0_33_110)">
<path d="M9.12365 13.8933L37.3634 14.7622C38.3257 14.783 39.1013 14.5933 39.1013 16.5V18.2378C39.1013 19.0971 38.481 19.1068 37.6195 19.1068H9.12365L18.6817 29.5337C19.4472 30.1258 19.4648 31.1274 18.6817 31.706L17.6946 32.5621C17.0868 33.1489 16.1228 33.1466 15.5197 32.5528L0.468075 17.748C-0.14666 17.1426 -0.153645 16.1553 0.454102 15.5429L15.3707 0.460941C15.9668 -0.142149 16.9355 -0.156121 17.5502 0.428342L18.6817 1.72843C19.3058 2.3222 18.7292 3.47366 18.1331 4.09771L9.12365 13.8933Z" fill="currentColor"/>
</g>
</svg>
