<?xml version="1.0" encoding="UTF-8"?>
<svg id="Layer_1" xmlns="http://www.w3.org/2000/svg" version="1.1" viewBox="0 0 52 40.8">
  <!-- Generator: Adobe Illustrator 29.1.0, SVG Export Plug-In . SVG Version: 2.1.0 Build 142)  -->
  <path fill="currentColor" d="M48.9,13.1c-3-4.4-8.9-6.7-14-5.1-3.7,1.1-7.1,3.6-9.2,6.9-2.7-4.5-8.5-7.6-14-7.3-4.2.1-8.3,2.4-10.2,6.3-2.2,4.4-2.1,10,.8,14,3,4.4,8.9,6.7,14,5.1,3.7-1.1,7.1-3.6,9.2-6.9,2.7,4.5,8.5,7.6,14,7.3,4.2-.1,8.3-2.4,10.2-6.3,2.2-4.4,2.1-10-.8-14h0ZM15.5,26.5c-4.2,2.3-9.2-2.5-8.5-6.8.3-3.4,3.9-6.4,7.3-5.4,2.1.6,4.2,2.8,5.9,4.4,1.7,1.6,1.5,2.7-.2,4.3-1.3,1.3-2.9,2.6-4.5,3.5h0ZM40.9,26.6c-2.7,1.4-5.3-.2-7.4-2-1.4-1.3-4.2-3.1-2.6-5.1.7-.9,1.7-1.7,2.5-2.5,1.3-1.2,2.7-2.2,4.1-2.6,2.5-.8,5.2.6,6.5,2.8,2.1,3.4.5,7.8-3,9.5h0s0,0,0,0Z"/>
</svg>