<svg width="52" height="26" viewBox="0 0 52 26" fill="none" xmlns="http://www.w3.org/2000/svg">
<g clip-path="url(#clip0_33_92)">
<path d="M48.8717 5.61816C45.8362 1.24262 39.9823 -1.0523 34.8662 0.472219C31.1851 1.58713 27.8105 4.09364 25.6756 7.32986C22.9385 2.82411 17.1605 -0.284618 11.7243 0.0219146C7.50071 0.141272 3.4534 2.44976 1.53825 6.30447C-0.696989 10.6882 -0.536941 16.2681 2.29238 20.3209C5.32786 24.6964 11.1818 26.9913 16.2979 25.4668C19.979 24.3519 23.3536 21.8454 25.4885 18.6092C28.2228 23.1149 34.0035 26.2209 39.4397 25.9171C43.6607 25.7977 47.7107 23.4893 49.6258 19.6318C51.8611 15.2482 51.701 9.66819 48.8717 5.61545V5.61816ZM15.5058 19.0052C11.2795 21.33 6.32884 16.5394 6.97717 12.2072C7.25115 8.78385 10.8617 5.76465 14.2987 6.81716C16.4118 7.45736 18.5332 9.58952 20.2232 11.1981C21.9457 12.804 21.7016 13.9081 20.0495 15.514C18.7393 16.8025 17.1226 18.1372 15.5519 18.9808L15.5058 19.0052ZM40.9426 19.1056C38.276 20.5162 35.6203 18.8614 33.5234 17.1145C32.1318 15.8395 29.3622 14.0085 30.9111 11.9902C31.6028 11.0733 32.5794 10.2487 33.4502 9.45117C34.755 8.301 36.1303 7.21321 37.5409 6.81174C39.9986 6.03591 42.7384 7.44922 44.0052 9.57867C46.0722 12.9315 44.4935 17.3939 40.9941 19.0839L40.9426 19.1083V19.1056Z" fill="currentColor"/>
</g>
<defs>
<clipPath id="clip0_33_92">
<rect width="51.1638" height="25.9386" fill="white"/>
</clipPath>
</defs>
</svg>
