<svg width="34" height="33" viewBox="0 0 34 33" fill="none" xmlns="http://www.w3.org/2000/svg">
<g clip-path="url(#clip0_32_30)">
<path d="M32.9842 0H22.0849C21.8467 0 21.6543 0.192381 21.6543 0.430567V12.4819L0.387052 0.201542C0.215283 0.103061 0 0.226735 0 0.423696V31.7177C0 31.9169 0.215283 32.0406 0.387052 31.9398L21.6566 19.6595V32.5147C21.6566 32.7529 21.849 32.9452 22.0872 32.9452H32.9865C33.2247 32.9452 33.417 32.7529 33.417 32.5147V0.430567C33.417 0.192381 33.2247 0 32.9865 0H32.9842ZM17.8067 16.7463L4.7912 24.6614C4.63547 24.7507 4.42934 24.6523 4.42934 24.4874V8.86785C4.42934 8.70295 4.63547 8.60447 4.7912 8.69379L17.8067 16.3157C17.9647 16.4165 17.9647 16.6478 17.8067 16.7486V16.7463ZM29.3083 27.7945C29.3083 27.9273 29.2007 28.0372 29.0656 28.0372H26.2073C26.0745 28.0372 25.9646 27.9296 25.9646 27.7945V4.39041C25.9646 4.25758 26.0722 4.14764 26.2073 4.14764H29.0656C29.1984 4.14764 29.3083 4.25528 29.3083 4.39041V27.7945Z" fill="currentColor"/>
</g>
</svg>
