<svg width="35" height="35" viewBox="0 0 35 35" fill="none" xmlns="http://www.w3.org/2000/svg">
<g clip-path="url(#clip0_33_78)">
<mask id="mask0_33_78" style="mask-type:luminance" maskUnits="userSpaceOnUse" x="0" y="0" width="35" height="35">
<path d="M34.5478 0H0V34.0314H34.5478V0Z" fill="white"/>
</mask>
<g mask="url(#mask0_33_78)">
<path d="M0.636475 15.1304C0.636475 15.1304 6.72467 13.8095 7.91349 17.9163C8.67001 20.5461 8.92218 26.5742 8.99423 30.5849C8.99423 31.1253 9.78678 31.2094 9.91887 30.681C10.9996 26.1419 12.9929 17.2679 13.125 16.2352C13.2331 15.3466 14.7702 9.69061 15.6107 3.95066C15.7909 2.7138 17.5681 2.67778 17.8083 3.90262L21.9871 25.3733C22.1673 26.334 23.5242 26.4422 23.8604 25.5176L26.6704 17.9283C27.1147 16.7275 28.2795 15.923 29.5764 15.923H34.5358" fill="currentColor"/>
<path d="M0.636475 15.1304C0.636475 15.1304 6.72467 13.8095 7.91349 17.9163C8.67001 20.5461 8.92218 26.5742 8.99423 30.5849C8.99423 31.1253 9.78678 31.2094 9.91887 30.681C10.9996 26.1419 12.9929 17.2679 13.125 16.2352C13.2331 15.3466 14.7702 9.69061 15.6107 3.95066C15.7909 2.7138 17.5681 2.67778 17.8083 3.90262L21.9871 25.3733C22.1673 26.334 23.5242 26.4422 23.8604 25.5176L26.6704 17.9283C27.1147 16.7275 28.2795 15.923 29.5764 15.923H34.5358" stroke="currentColor" stroke-width="6.00413" stroke-miterlimit="10"/>
</g>
</g>
<defs>
<clipPath id="clip0_33_78">
<rect width="34.824" height="34.824" fill="white"/>
</clipPath>
</defs>
</svg>
