<svg width="34" height="33" viewBox="0 0 34 33" fill="none" xmlns="http://www.w3.org/2000/svg">
<g clip-path="url(#clip0_32_32)">
<path d="M0 0.430567V32.5193C0 32.7574 0.192381 32.9498 0.430567 32.9498H11.3299C11.5681 32.9498 11.7604 32.7574 11.7604 32.5193V19.6641L33.03 31.9444C33.2018 32.0429 33.417 31.9192 33.417 31.7222V0.425986C33.417 0.226735 33.2018 0.103061 33.03 0.203832L11.7604 12.4819V0.430567C11.7604 0.192381 11.5681 0 11.3299 0H0.430567C0.192381 0 0 0.192381 0 0.430567ZM15.6081 16.3135L28.6235 8.6915C28.7793 8.60218 28.9854 8.70066 28.9854 8.86556V24.4851C28.9854 24.65 28.7793 24.7484 28.6235 24.6591L15.6081 16.744C15.45 16.6432 15.45 16.4119 15.6081 16.3112V16.3135ZM4.10871 4.39041C4.10871 4.25757 4.21635 4.14764 4.35147 4.14764H7.20971C7.34254 4.14764 7.45247 4.25528 7.45247 4.39041V27.7945C7.45247 27.9273 7.34483 28.0372 7.20971 28.0372H4.35147C4.21864 28.0372 4.10871 27.9296 4.10871 27.7945V4.39041Z" fill="currentColor"/>
</g>
<defs>
<clipPath id="clip0_32_32">
<rect width="33.4147" height="32.9475" fill="white"/>
</clipPath>
</defs>
</svg>
