<svg width="38" height="37" viewBox="0 0 38 37" fill="none" xmlns="http://www.w3.org/2000/svg">
<g clip-path="url(#clip0_55_32)">
<path d="M19.9004 0.00976562C24.0002 0.229839 27.8299 1.75047 31.0098 4.40039C32.4497 5.62038 33.4801 6.84037 34.5801 8.61035C35.58 10.2403 36.6995 13.3197 37.0195 15.3496C38.0095 21.5696 35.3698 28.1897 30.2998 32.2197C28.4399 33.6996 24.1206 35.5695 21.7305 35.9297C20.9905 36.0397 19.84 36.1201 18.79 36.1201V36.1104C18.5002 36.1104 18.2303 36.1098 17.9805 36.0898C14.0005 35.8998 9.95965 34.2202 6.88965 31.4902L6.20996 30.8799L10.2305 25.4297L11.0498 26.2002C13.2098 28.2302 16.1802 29.3896 19.2002 29.3896C21.6301 29.3896 23.9101 28.6602 25.79 27.2803C29.22 24.7603 31.1599 19.7102 30.29 15.5303C29.23 10.3603 24.46 6.61035 18.96 6.61035C18.35 6.61035 17.7301 6.65978 17.1201 6.75977C15.6201 6.99977 13.3397 8.03008 12.2197 8.83008L13.4004 9.30957C16.3702 10.5395 16.4799 10.7801 16.6299 11.1201C17.0698 12.1301 16.9199 12.3301 11.1504 14.8799L5.16992 17.5195L2.62012 11.6299C1.04107 7.99207 0.510822 6.15212 0.490234 6.08008L0 4.37988L1.70996 4.83984C1.76996 4.85984 3.17961 5.24047 4.30957 5.69043L5.41992 6.13965L5.61035 5.94043C7.27027 4.16052 9.2498 2.80012 11.8496 1.66016C14.6295 0.44022 16.5798 0.00981069 19.3096 0.00976562H19.9004Z" fill="currentColor"/>
</g>
</svg>
