<svg width="40" height="33" viewBox="0 0 40 33" fill="none" xmlns="http://www.w3.org/2000/svg">
<path d="M30.6292 13.8933L2.38944 14.7622C1.42719 14.783 0.651611 14.5933 0.651611 16.5V18.2378C0.651611 19.0971 1.27187 19.1068 2.13343 19.1068H30.6292L21.0711 29.5337C20.3057 30.1258 20.2881 31.1274 21.0711 31.706L22.0583 32.5621C22.666 33.1489 23.6301 33.1466 24.2332 32.5528L39.2848 17.748C39.8995 17.1426 39.9065 16.1553 39.2988 15.5429L24.3822 0.460941C23.7861 -0.142149 22.8174 -0.156121 22.2027 0.428342L21.0711 1.72843C20.4471 2.3222 21.0236 3.47366 21.6198 4.09771L30.6292 13.8933Z" fill="currentColor"/>
</svg>
