<?xml version="1.0" encoding="UTF-8"?>
<svg id="Layer_1" xmlns="http://www.w3.org/2000/svg" version="1.1" viewBox="0 0 26 26">
  <!-- Generator: Adobe Illustrator 29.1.0, SVG Export Plug-In . SVG Version: 2.1.0 Build 142)  -->
  <path fill="currentColor" d="M14.6,18.7V3.5c0-.8-.6-1.4-1.5-1.5,0,0-.1,0-.2,0-.5,0-.9.2-1.3.5L.6,12.6c-.9.8-.4,2.1.8,2.4,0,0,.1,0,.2,0,.5,0,1,0,1.4-.4l8.3-7.2v15.2c0,.7.6,1.3,1.4,1.5,0,0,0,0,0,0,.6.1,1.2,0,1.6-.4l11.1-9.9c.9-.8.5-2.3-.9-2.5,0,0,0,0,0,0-.5,0-1.1,0-1.5.4l-8.4,7.2h0Z"/>
</svg>