<svg width="26" height="26" viewBox="0 0 26 26" fill="none" xmlns="http://www.w3.org/2000/svg">
<g clip-path="url(#clip0_76_39)">
<path d="M14.5136 19.1387V1.73005C14.5136 0.864981 13.8763 0.107226 13.0156 0.0130537C12.9499 0.0064836 12.8798 0.00210351 12.8075 -8.65318e-05C12.3279 -0.0132268 11.8658 0.186067 11.5351 0.532094L0.457854 12.0627C-0.400643 12.9562 0.0088951 14.4695 1.21342 14.763C1.27912 14.7783 1.34701 14.7937 1.41709 14.8046C1.92956 14.8922 2.4508 14.7148 2.81872 14.3469L11.0927 6.07072L11.1716 23.3984C11.1759 24.2065 11.7213 24.9292 12.5097 25.1044C12.5228 25.1066 12.5381 25.111 12.5513 25.1132C13.1295 25.2314 13.7273 25.0343 14.1391 24.6116L25.2492 13.276C26.1909 12.3145 25.7178 10.6632 24.3972 10.4004C24.3753 10.3961 24.3534 10.3917 24.3315 10.3895C23.795 10.2997 23.2475 10.4837 22.862 10.8669L14.5114 19.1387H14.5136Z" fill="currentColor"/>
</g>
</svg>
