<svg width="32" height="32" viewBox="0 0 32 32" fill="none" xmlns="http://www.w3.org/2000/svg">
<path d="M18.8739 17.5844C20.1504 16.0995 20.3523 14.6472 20.3523 12.5501C20.3523 7.8739 16.5619 4.08349 11.8858 4.08349C7.20961 4.08349 3.41919 7.8739 3.41919 12.5501C3.41919 17.2262 7.20961 21.0166 11.8858 21.0166C13.9829 21.0166 15.4352 20.8147 16.9201 19.5382L24.26 26.8651L26.2008 24.9243L18.8739 17.5844ZM11.8858 18.4115C8.64241 18.4115 6.02429 15.7934 6.02429 12.5501C6.02429 9.30671 8.64241 6.68859 11.8858 6.68859C15.1291 6.68859 17.7472 9.30671 17.7472 12.5501C17.7472 15.7934 15.1291 18.4115 11.8858 18.4115Z" fill="currentColor"/>
</svg>
