<?xml version="1.0" encoding="UTF-8"?>
<svg id="Layer_3" xmlns="http://www.w3.org/2000/svg" version="1.1" viewBox="0 0 117.6 114.8">
  <!-- Generator: Adobe Illustrator 29.1.0, SVG Export Plug-In . SVG Version: 2.1.0 Build 142)  -->
  <path fill="currentColor" d="M83.3,84.4c-.9,0-1.8,0-2.7-.2-12.7-2-20.4-14.4-26.5-24.4-1.2-1.9-2.2-3.7-3.3-5.3-.8-1.2-1.5-2.4-2.2-3.6-2.5-4.1-4.8-7.9-7.8-11-2-1.9-4-2.8-5.9-2.8-6.5,0-13.2,11.4-17.2,18.2-.4.7-.8,1.3-1.1,1.9-.1.2-.3.5-.4.8-.9,1.8-2.3,4.5-5.3,4.5s-.5,0-.8,0c-1.6-.3-3.5-.8-5.7-2-1.2-.7-2.6-1.7-3.1-3.5-.5-1.9.4-3.4.9-4.2v-.2c2.4-3.7,6.8-10.5,9.5-13.9h0c.7-.9,1.4-1.7,2-2.5,5.3-6.5,11.4-13.9,20.4-13.9s5.6.7,8.4,2.1c5.9,2.8,9.8,7.8,12.6,11.8,2.1,3.1,4.2,6.5,6.3,9.8.7,1.1,1.4,2.3,2.1,3.4,1,1.5,1.9,3,2.9,4.6,3.6,5.8,7.7,12.3,12.6,15.1,1.2.6,2.6,1,4.1,1s3.5-.5,5-1.4c4.7-2.9,7.7-8.3,11-13.9.7-1.2,1.4-2.5,2.1-3.7h0s2.3-4.1,3.6-5.1c.8-.6,1.8-.9,2.9-.9s5.6.7,7.2,2.6c1.4,1.7,1.5,3.7.3,6.1-2.6,5.5-5.9,11.2-10,17.4-5.6,8.4-13.8,13.4-22.1,13.4Z"/>
</svg>