<svg width="37" height="35" viewBox="0 0 37 35" fill="none" xmlns="http://www.w3.org/2000/svg">
<g clip-path="url(#clip0_33_58)">
<mask id="mask0_33_58" style="mask-type:luminance" maskUnits="userSpaceOnUse" x="0" y="0" width="37" height="35">
<path d="M36.8 0H0V34.53H36.8V0Z" fill="white"/>
</mask>
<g mask="url(#mask0_33_58)">
<path d="M6.85998 0.82L20.88 15.84C20.88 15.84 22.67 17.45 20.58 19.63C18.8 21.48 9.37998 30.82 6.57998 33.6C5.95998 34.22 5.10998 34.58 4.22998 34.52C3.34998 34.46 2.23998 34.1 1.27998 33.1C-1.76002 29.95 1.61998 26.94 1.61998 26.94L11.08 17.47L0.48999 6.27C0.48999 6.27 -0.56001 3.25 1.62998 1.11C3.81999 -1.03 6.85998 0.83 6.85998 0.83V0.82Z" fill="currentColor"/>
<path d="M22.0699 0.749943L36.0899 15.7699C36.0899 15.7699 37.8799 17.3799 35.7899 19.5599C34.0099 21.4099 24.5899 30.7499 21.7899 33.5299C21.1699 34.1499 20.3199 34.5099 19.4399 34.4499C18.5599 34.3899 17.4499 34.0299 16.4899 33.0299C13.4499 29.8799 16.8299 26.8699 16.8299 26.8699L26.2899 17.3999L15.6899 6.19994C15.6899 6.19994 14.6499 3.17994 16.8299 1.02994C19.0099 -1.12006 22.0599 0.749943 22.0599 0.749943H22.0699Z" fill="currentColor"/>
</g>
</g>
</svg>
