<?xml version="1.0" encoding="UTF-8"?>
<svg id="Layer_2" xmlns="http://www.w3.org/2000/svg" version="1.1" viewBox="0 0 43 43">
  <!-- Generator: Adobe Illustrator 29.1.0, SVG Export Plug-In . SVG Version: 2.1.0 Build 142)  -->
  <path fill="currentColor" d="M24,8.3v25.9c0,.8-.2,1.5-.7,2.1-.8,1-2.4,2.1-5.1.7-.3-.2-.6-.4-.9-.7-2.4-2.5-5-4.8-6.2-5.9-.6-.5-1.2-.8-2-.9l-2.8-.3c-1.8-.2-3.2-1.7-3.2-3.5l-.2-8.6c0-2,1.6-3.7,3.6-3.7h1.9c.9,0,1.8-.4,2.5-1l6.8-6.6c.3-.3.6-.5.9-.7,1-.5,3.1-1.1,4.7.8.5.6.8,1.4.8,2.2Z"/>
  <path d="M26.8,14.4s8.3,6.9.3,14.4" fill="none" stroke="currentColor" stroke-miterlimit="10" stroke-width="2.7"/>
</svg>