<svg width="43" height="43" viewBox="0 0 43 43" fill="none" xmlns="http://www.w3.org/2000/svg">
<path d="M22.3921 8.30504V34.2422C22.3921 35.0032 22.1772 35.7463 21.7117 36.3462C20.9149 37.3758 19.357 38.4681 16.5995 37.0893C16.2682 36.9192 15.9727 36.6774 15.7131 36.4088C13.3137 33.9109 10.762 31.6368 9.46383 30.5087C8.90874 30.0253 8.21935 29.7298 7.47624 29.6582L4.6381 29.3717C2.83853 29.1926 1.45975 27.6975 1.40603 25.8889L1.18221 17.2402C1.12849 15.2168 2.749 13.5426 4.7724 13.5426H6.69732C7.63739 13.5426 8.53271 13.1755 9.20419 12.522L15.9817 5.92351C16.2592 5.65492 16.5636 5.43109 16.9128 5.26994C17.9245 4.79542 20.0106 4.1687 21.6401 6.10258C22.1504 6.71139 22.3921 7.50821 22.3921 8.30504Z" fill="currentColor"/>
<path d="M30.6021 17.7326L33.6551 15.1362C33.6551 15.1362 34.7384 14.2588 36.2873 15.933C37.8362 17.6073 36.4753 18.8249 36.4753 18.8249L34.058 21.3765L36.4753 23.9282C36.4753 23.9282 37.7914 25.8441 36.1799 27.1781C34.5683 28.5122 32.9926 27.2766 32.9926 27.2766L30.6021 24.8235L28.2116 27.3572C28.2116 27.3572 26.2956 28.6106 24.7378 26.8737C23.18 25.1368 24.4961 23.9371 24.4961 23.9371L27.1193 21.3676L24.2633 18.0907C24.2633 18.0907 23.7351 16.1837 25.3466 15.3063C26.9582 14.4289 28.1848 15.3511 28.1848 15.3511L30.6021 17.7147V17.7326Z" fill="currentColor"/>
</svg>
