<?xml version="1.0" encoding="UTF-8"?>
<svg id="Layer_1" xmlns="http://www.w3.org/2000/svg" version="1.1" viewBox="0 0 43 43">
  <!-- Generator: Adobe Illustrator 29.1.0, SVG Export Plug-In . SVG Version: 2.1.0 Build 142)  -->
  <path fill="currentColor" d="M24,8.3v25.9c0,.8-.2,1.5-.7,2.1-.8,1-2.4,2.1-5.1.7-.3-.2-.6-.4-.9-.7-2.4-2.5-5-4.8-6.2-5.9-.6-.5-1.2-.8-2-.9l-2.8-.3c-1.8-.2-3.2-1.7-3.2-3.5l-.2-8.6c0-2,1.6-3.7,3.6-3.7h1.9c.9,0,1.8-.4,2.5-1l6.8-6.6c.3-.3.6-.5.9-.7,1-.5,3.1-1.1,4.7.8.5.6.8,1.4.8,2.2Z"/>
  <path fill="currentColor" d="M32.2,17.7l3.1-2.6s1.1-.9,2.6.8c1.5,1.7.2,2.9.2,2.9l-2.4,2.6,2.4,2.6s1.3,1.9-.3,3.2c-1.6,1.3-3.2,0-3.2,0l-2.4-2.5-2.4,2.5s-1.9,1.3-3.5-.5c-1.6-1.7-.2-2.9-.2-2.9l2.6-2.6-2.9-3.3s-.5-1.9,1.1-2.8c1.6-.9,2.8,0,2.8,0l2.4,2.4h0Z"/>
</svg>