<svg width="43" height="43" viewBox="0 0 43 43" fill="none" xmlns="http://www.w3.org/2000/svg">
<path d="M28.2702 8.30504V34.2422C28.2702 35.0032 28.0553 35.7463 27.5897 36.3462C26.7929 37.3758 25.2351 38.4681 22.4775 37.0893C22.1462 36.9192 21.8508 36.6774 21.5911 36.4088C19.1917 33.9109 16.6401 31.6368 15.3419 30.5087C14.7868 30.0253 14.0974 29.7298 13.3543 29.6582L10.5162 29.3717C8.71658 29.1926 7.3378 27.6975 7.28409 25.8889L7.06026 17.2402C7.00654 15.2168 8.62705 13.5426 10.6505 13.5426H12.5754C13.5154 13.5426 14.4108 13.1755 15.0822 12.522L21.8597 5.92351C22.1373 5.65492 22.4417 5.43109 22.7909 5.26994C23.8026 4.79542 25.8886 4.1687 27.5181 6.10258C28.0284 6.71139 28.2702 7.50821 28.2702 8.30504Z" fill="currentColor"/>
<path d="M31.0994 14.3841C31.0994 14.3841 39.4168 21.2511 31.368 28.7717" stroke="currentColor" stroke-width="2.68593" stroke-miterlimit="10"/>
</svg>
