<svg width="43" height="43" viewBox="0 0 43 43" fill="none" xmlns="http://www.w3.org/2000/svg">
<path d="M23.9889 8.30504V34.2422C23.9889 35.0032 23.774 35.7463 23.3085 36.3462C22.5117 37.3758 20.9538 38.4681 18.1963 37.0893C17.865 36.9192 17.5695 36.6774 17.3099 36.4088C14.9105 33.9109 12.3588 31.6368 11.0606 30.5087C10.5055 30.0253 9.81615 29.7298 9.07304 29.6582L6.23491 29.3717C4.43533 29.1926 3.05655 27.6975 3.00284 25.8889L2.77901 17.2402C2.72529 15.2168 4.3458 13.5426 6.3692 13.5426H8.29412C9.2342 13.5426 10.1295 13.1755 10.801 12.522L17.5785 5.92351C17.856 5.65492 18.1604 5.43109 18.5096 5.26994C19.5213 4.79542 21.6074 4.1687 23.2369 6.10258C23.7472 6.71139 23.9889 7.50821 23.9889 8.30504Z" fill="currentColor"/>
<path d="M26.8181 14.3841C26.8181 14.3841 35.1355 21.2511 27.0867 28.7717" stroke="currentColor" stroke-width="2.68593" stroke-miterlimit="10"/>
<path d="M29.8531 9.62115C29.8531 9.62115 43.8021 21.6631 29.9248 33.0425" stroke="currentColor" stroke-width="2.68593" stroke-miterlimit="10"/>
</svg>
